Coordinates
version=1
nRows=22
nColumns=24
inDegrees=yes

Units are S.I. units (second, meters, Newtons, ...)
Angles are in degrees.

endheader
time	pelvis_tilt	pelvis_list	pelvis_rotation	pelvis_tx	pelvis_ty	pelvis_tz	hip_flexion_r	hip_adduction_r	hip_rotation_r	knee_angle_r	ankle_angle_r	subtalar_angle_r	mtp_angle_r	hip_flexion_l	hip_adduction_l	hip_rotation_l	knee_angle_l	ankle_angle_l	subtalar_angle_l	mtp_angle_l	lumbar_extension	lumbar_bending	lumbar_rotation
      4.18500000	     -1.42157848	     -5.57219049	     -0.40605913	     -1.17954043	      0.93463014	      0.27558265	     13.47196197	     13.23344352	      6.18529007	    -24.40744212	     15.58691672	    -15.54294178	      0.00000000	     24.59041477	     -6.36966272	     -3.46617779	    -70.36375374	     14.69963997	     -9.10822264	      0.00000000	     -9.76421750	      5.34770364	     -6.45555474
      4.19000000	     -1.41567589	     -5.33940980	     -0.55773932	     -1.17273450	      0.93569047	      0.27600691	     12.70342996	     13.02577208	      6.47596496	    -23.90523264	     15.74897633	    -15.59264463	      0.00000000	     25.18896363	     -6.09246930	     -3.47819886	    -69.51276986	     15.30595051	     -8.48732985	      0.00000000	     -9.77938363	      5.02423878	     -6.35145972
      4.19500000	     -1.33169860	     -5.13606090	     -0.76721849	     -1.16596928	      0.93678108	      0.27653327	     11.84094176	     12.86883401	      6.91823703	    -23.39770278	     15.86497808	    -15.68382085	      0.00000000	     25.65636424	     -5.86677776	     -3.52690976	    -68.56998268	     15.89555441	     -7.93563455	      0.00000000	     -9.90998048	      4.71272834	     -6.06999797
      4.20000000	     -1.28636790	     -4.92009157	     -0.95546787	     -1.15918886	      0.93774452	      0.27700522	     11.03440710	     12.68039357	      7.28774263	    -22.90063943	     15.99064687	    -15.77393936	      0.00000000	     26.13651736	     -5.61682730	     -3.57412172	    -67.53321887	     16.40551235	     -7.50847426	      0.00000000	     -9.98165978	      4.39760799	     -5.88645044
      4.20500000	     -1.25652885	     -4.71224781	     -1.15365074	     -1.15241959	      0.93859147	      0.27748315	     10.25957123	     12.49280796	      7.63218216	    -22.42244659	     16.12786530	    -15.84381369	      0.00000000	     26.60203043	     -5.37956359	     -3.63323119	    -66.41441818	     16.86593664	     -7.16990387	      0.00000000	    -10.03462831	      4.09216131	     -5.69738628
      4.21000000	     -1.22875421	     -4.51283725	     -1.35959539	     -1.14566849	      0.93934461	      0.27793861	      9.50169334	     12.30752413	      7.97783182	    -21.96563736	     16.26419215	    -15.90770665	      0.00000000	     27.03484968	     -5.14619049	     -3.69166106	    -65.20810202	     17.28228743	     -6.92164794	      0.00000000	    -10.08779585	      3.79940950	     -5.49856701
      4.21500000	     -1.27378385	     -4.33888231	     -1.51610919	     -1.13893923	      0.93985802	      0.27834853	      8.85809280	     12.13440297	      8.20031551	    -21.55094618	     16.42502375	    -15.93379345	      0.00000000	     27.53680128	     -4.91473907	     -3.67946540	    -63.94533005	     17.67880636	     -6.70787080	      0.00000000	    -10.04644203	      3.53924049	     -5.40192405
      4.22000000	     -1.20466601	     -4.13784841	     -1.79065981	     -1.13216464	      0.94049633	      0.27891521	      8.06100804	     11.94805830	      8.60479369	    -21.10714091	     16.57880818	    -16.01205748	      0.00000000	     27.84022647	     -4.72878302	     -3.84172002	    -62.56507539	     17.97182199	     -6.62048524	      0.00000000	    -10.14965531	      3.22907579	     -5.10996487
      4.22500000	     -1.17564859	     -3.96839845	     -2.01109367	     -1.12539832	      0.94094975	      0.27936804	      7.34055757	     11.78030159	      8.92648746	    -20.70880915	     16.73179161	    -16.09352794	      0.00000000	     28.16948590	     -4.53397182	     -3.90488555	    -61.12220506	     18.26043990	     -6.54139614	      0.00000000	    -10.19640704	      2.97593637	     -4.91493192
      4.23000000	     -1.16168461	     -3.80949215	     -2.23116844	     -1.11865688	      0.94127037	      0.27982752	      6.65360104	     11.62008193	      9.23896052	    -20.33556363	     16.89910030	    -16.16118669	      0.00000000	     28.48885397	     -4.35337874	     -3.96330832	    -59.61313912	     18.51363243	     -6.49674308	      0.00000000	    -10.23270431	      2.72797152	     -4.71581187
      4.23500000	     -1.12122653	     -3.66309868	     -2.46547328	     -1.11194652	      0.94153370	      0.28028386	      5.95268942	     11.47115099	      9.58998166	    -19.98994762	     17.06378762	    -16.23617458	      0.00000000	     28.74335840	     -4.18424229	     -4.00896944	    -58.02721076	     18.72885281	     -6.48333816	      0.00000000	    -10.30821789	      2.49500708	     -4.47185498
      4.24000000	     -1.12389786	     -3.51926364	     -2.68599994	     -1.10518521	      0.94162378	      0.28075849	      5.31675909	     11.32308961	      9.87528553	    -19.67312358	     17.25480792	    -16.31752484	      0.00000000	     29.01381939	     -4.03294763	     -4.07129345	    -56.37547137	     18.92790279	     -6.45779470	      0.00000000	    -10.31498009	      2.26182207	     -4.31357293
      4.24500000	     -1.09090470	     -3.38668088	     -2.92471932	     -1.09847961	      0.94167623	      0.28119320	      4.65776902	     11.18258036	     10.22009998	    -19.38597331	     17.44331960	    -16.40168647	      0.00000000	     29.20863949	     -3.88473530	     -4.10527089	    -54.65001666	     19.09894203	     -6.43470302	      0.00000000	    -10.38662246	      2.05094652	     -4.08225778
      4.25000000	     -1.07317826	     -3.26306187	     -3.15381951	     -1.09175088	      0.94160209	      0.28166257	      4.03129003	     11.05271849	     10.53673980	    -19.12672061	     17.64413264	    -16.49414214	      0.00000000	     29.38864493	     -3.75684500	     -4.14019256	    -52.86093914	     19.25729036	     -6.39186177	      0.00000000	    -10.42891346	      1.83876408	     -3.89678566
      4.25500000	     -1.06126059	     -3.14372295	     -3.38634478	     -1.08502940	      0.94142810	      0.28210353	      3.42803953	     10.92396212	     10.84869861	    -18.89669066	     17.86088295	    -16.58910610	      0.00000000	     29.53953034	     -3.63638312	     -4.16787938	    -51.00394863	     19.40377637	     -6.31462560	      0.00000000	    -10.47020087	      1.63831114	     -3.72468428
      4.26000000	     -1.07703383	     -3.02841836	     -3.60248107	     -1.07828509	      0.94111813	      0.28255013	      2.87262995	     10.80036934	     11.12439180	    -18.69825859	     18.09510443	    -16.67975595	      0.00000000	     29.68979802	     -3.53041467	     -4.20251482	    -49.08666956	     19.54559360	     -6.19209658	      0.00000000	    -10.47067103	      1.44318349	     -3.61040378
      4.26500000	     -1.06656951	     -2.91529456	     -3.83017266	     -1.07155391	      0.94077327	      0.28295650	      2.30216139	     10.67441551	     11.43488332	    -18.52842687	     18.33902054	    -16.76753442	      0.00000000	     29.76892959	     -3.42464464	     -4.22049611	    -47.09523271	     19.66966901	     -6.03212648	      0.00000000	    -10.51224387	      1.25523721	     -3.45411468
      4.27000000	     -1.03583156	     -2.81691440	     -4.05783501	     -1.06486297	      0.94037237	      0.28337209	      1.72844320	     10.56371455	     11.74962129	    -18.39149568	     18.58536960	    -16.85930972	      0.00000000	     29.79216245	     -3.33297151	     -4.20196357	    -45.04350081	     19.78428729	     -5.82320423	      0.00000000	    -10.58924405	      1.07380642	     -3.29130187
      4.27500000	     -1.06784158	     -2.71553094	     -4.25381727	     -1.05811601	      0.93979714	      0.28373897	      1.23443384	     10.44968803	     11.99661742	    -18.27309602	     18.85166423	    -16.94371726	      0.00000000	     29.85539288	     -3.24837819	     -4.20601936	    -42.94053008	     19.89549851	     -5.54406818	      0.00000000	    -10.57940349	      0.90736339	     -3.23443307
      4.28000000	     -1.06275170	     -2.61588634	     -4.47020417	     -1.05138981	      0.93921372	      0.28411399	      0.71380493	     10.33365556	     12.26988162	    -18.18280798	     19.13003174	    -17.01481266	      0.00000000	     29.83403157	     -3.17039692	     -4.19727174	    -40.77021623	     19.98209392	     -5.23438555	      0.00000000	    -10.62306570	      0.73305705	     -3.13302758
      4.28500000	     -1.03774875	     -2.52768759	     -4.68291028	     -1.04469484	      0.93858658	      0.28447021	      0.18819195	     10.22702472	     12.53096424	    -18.12085166	     19.41185842	    -17.08456372	      0.00000000	     29.75831195	     -3.10179780	     -4.15207265	    -38.55077309	     20.05131647	     -4.87141129	      0.00000000	    -10.70179502	      0.56870554	     -3.03813996
      4.29000000	     -1.03978478	     -2.44536708	     -4.87733264	     -1.03796400	      0.93784766	      0.28481537	     -0.30166291	     10.12754292	     12.75208696	    -18.07116895	     19.70441830	    -17.14852630	      0.00000000	     29.68334528	     -3.04566366	     -4.10695139	    -36.29294201	     20.09976742	     -4.47037974	      0.00000000	    -10.74355821	      0.41376121	     -2.99648673
